# xmcd CD database file
#
# Track frame offsets:
#	150
#	12812
#	26015
#	36517
#	50557
#	60942
#	72667
#	84025
#	96480
#	111112
#	125225
#	136300
#
# Disc length: 1984 seconds
#
# Revision: 1
# Processed by: cddbd v1.5.2PL0 Copyright (c) Steve Scherf et al.
# Submitted via: CDex 1.70beta2
#
DISCID=a607be0c
DTITLE=Johnny Horton's - Greatest Hits
DYEAR=1900
DGENRE=Country
TTITLE0=North To Alaska
TTITLE1=Whispering Pines
TTITLE2=Johnny Reb
TTITLE3=The Mansion You Stole
TTITLE4=I'm Ready, If You're Willing
TTITLE5=When It's Springtime In Alaska
TTITLE6=The Battle Of New Orleans
TTITLE7=All For The Love Of A Girl
TTITLE8=Sink The Bismarck
TTITLE9=Comanche
TTITLE10=Jim Bridger
TTITLE11=Johnny Freedom
EXTD=
EXTT0=
EXTT1=
EXTT2=
EXTT3=
EXTT4=
EXTT5=
EXTT6=
EXTT7=
EXTT8=
EXTT9=
EXTT10=
EXTT11=
PLAYORDER=
